<?xml version="1.0" standalone="no"?>
<!DOCTYPE svg PUBLIC "-//W3C//DTD SVG 20010904//EN"
 "http://www.w3.org/TR/2001/REC-SVG-20010904/DTD/svg10.dtd">
<svg version="1.0" xmlns="http://www.w3.org/2000/svg"
 width="400.000000pt" height="400.000000pt" viewBox="0 0 400.000000 400.000000"
 preserveAspectRatio="xMidYMid meet">

<g transform="translate(0.000000,400.000000) scale(0.100000,-0.100000)"
fill="#000000" stroke="none">
<path d="M1557 3009 c-36 -29 -38 -30 -94 -20 -31 6 -64 11 -72 10 -31 -1 45
-28 100 -35 40 -4 59 -12 68 -26 7 -11 8 -18 3 -14 -5 3 -26 6 -46 8 -21 1
-40 6 -42 10 -3 4 -15 8 -27 8 -15 -1 -7 -7 26 -22 43 -19 62 -38 37 -38 -5 0
-16 -13 -25 -29 -14 -28 -14 -30 5 -36 15 -5 19 -14 17 -43 -2 -50 18 -96 49
-112 13 -8 26 -11 28 -9 2 2 -9 31 -24 64 -34 70 -37 92 -12 97 19 4 96 -56
130 -101 l21 -29 -23 -25 c-16 -17 -27 -22 -34 -15 -19 19 -90 -31 -106 -76
-5 -14 -3 -17 11 -11 46 17 74 17 93 0 11 -10 20 -13 20 -7 0 6 -6 12 -12 15
-7 2 -10 8 -5 13 4 4 14 -2 23 -14 20 -29 44 -18 44 21 0 27 2 29 14 17 8 -8
17 -26 21 -39 6 -20 4 -23 -9 -18 -23 9 -73 -21 -127 -75 -15 -16 -30 -28 -34
-28 -13 0 -84 -73 -79 -82 3 -5 1 -15 -5 -22 -8 -10 -4 -12 19 -8 17 2 30 8
30 13 0 5 7 6 15 3 8 -4 12 -10 9 -15 -3 -5 0 -9 5 -9 6 0 11 -13 11 -29 0
-30 4 -28 -162 -99 -54 -23 -90 -68 -67 -83 8 -5 29 -9 47 -9 26 0 33 -4 31
-17 -5 -56 -1 -62 39 -56 20 3 53 14 74 24 35 18 78 66 78 87 0 13 28 42 41
42 5 0 9 -9 9 -20 0 -25 27 -37 50 -22 13 8 22 8 35 -2 16 -11 16 -15 1 -51
-17 -40 -14 -57 6 -37 17 17 48 15 48 -4 0 -9 9 -18 20 -21 24 -6 27 -45 6
-93 -9 -23 -11 -43 -5 -65 6 -20 6 -42 0 -56 -11 -28 -86 -107 -155 -162 -25
-22 -55 -56 -66 -78 -26 -49 -50 -151 -50 -209 l0 -45 -56 -14 c-83 -19 -102
-30 -110 -64 -5 -23 -2 -34 12 -44 26 -19 3 -16 -25 3 l-24 17 5 -158 c5 -156
5 -158 31 -181 25 -21 40 -73 17 -59 -11 7 -13 -5 -10 -42 1 -17 -3 -21 -13
-17 -19 7 -31 -88 -26 -205 5 -103 22 -128 111 -158 109 -38 200 -48 413 -47
173 1 213 4 295 24 103 24 188 58 207 81 7 9 13 64 16 139 2 69 8 138 12 154
6 21 5 27 -4 22 -7 -4 -11 0 -11 12 0 28 -11 34 -32 15 -17 -15 -18 -14 -18
16 0 23 9 40 29 59 28 26 29 32 41 177 9 109 9 150 1 153 -6 2 -11 14 -11 27
0 15 -11 32 -30 45 -16 12 -30 18 -30 14 0 -4 -6 1 -14 11 -8 11 -13 29 -11
42 3 27 -19 31 -34 6 -9 -16 -10 -14 -11 9 0 15 4 30 10 33 13 8 13 62 -1 67
-5 2 -13 23 -16 46 -5 36 -9 42 -24 37 -16 -5 -19 -1 -19 23 0 17 -10 40 -23
54 -13 14 -22 29 -20 35 2 6 -9 24 -25 41 -25 27 -29 28 -39 14 -10 -15 -14
-14 -37 13 -14 17 -23 22 -20 13 3 -9 1 -25 -4 -34 -7 -13 -10 -5 -9 33 0 85
-21 98 -43 26 -23 -79 -21 -104 11 -152 35 -53 39 -105 10 -121 -11 -5 -24
-10 -29 -10 -14 0 -54 89 -46 102 4 7 -17 -8 -48 -34 -31 -27 -60 -48 -65 -48
-4 0 -23 -20 -41 -44 -25 -33 -33 -55 -35 -92 -2 -55 -21 -69 -31 -23 -15 78
0 189 26 189 4 0 8 16 8 35 0 27 7 42 28 60 29 27 11 35 -21 10 -30 -22 -79 5
-53 29 22 20 59 38 83 41 20 2 24 -1 20 -16 -7 -25 4 -30 39 -19 16 4 23 9 17
9 -7 1 -13 8 -13 16 0 9 7 15 16 13 10 -2 19 3 22 11 3 9 0 11 -8 6 -8 -5 -11
-1 -8 11 3 13 11 18 26 17 12 -2 22 2 22 7 0 6 -8 10 -17 10 -17 1 -17 1 0 11
20 12 23 31 4 23 -7 -2 -21 3 -32 11 -14 11 -16 15 -5 14 8 -1 27 1 43 5 24 7
27 13 27 53 0 24 3 42 8 40 4 -3 7 5 8 16 0 12 5 31 9 42 8 18 7 19 -8 6 -9
-7 -17 -10 -18 -5 -10 126 -11 122 12 129 16 5 29 -1 55 -26 27 -26 34 -29 34
-15 0 30 -20 56 -43 56 -17 0 -10 8 30 35 29 19 57 35 62 35 6 0 24 18 42 40
32 39 32 40 43 17 14 -27 56 -36 56 -12 0 9 -7 30 -16 47 -15 29 -18 30 -29
15 -19 -27 -29 -20 -11 8 18 27 22 60 6 50 -5 -3 -10 -1 -10 4 0 6 9 11 20 11
11 0 20 -4 20 -10 0 -11 29 -14 31 -2 8 43 4 59 -20 82 -14 14 -34 29 -44 33
-29 11 -4 47 33 47 17 0 30 -4 30 -10 0 -5 6 -7 13 -5 6 2 26 1 44 -3 l32 -7
-24 -12 c-20 -9 -25 -8 -25 3 0 8 -7 14 -15 14 -8 0 -15 -7 -15 -15 0 -23 -17
-18 -25 8 -4 15 -8 18 -12 8 -3 -7 6 -24 21 -38 14 -13 26 -28 26 -33 0 -26
102 5 126 38 7 9 17 17 23 17 6 0 29 19 51 43 37 41 39 47 42 115 l3 72 19
-29 c19 -27 19 -30 3 -59 -27 -47 -14 -41 26 12 20 26 37 58 37 69 0 11 5 24
10 27 6 3 10 11 10 17 0 7 -5 7 -14 -1 -10 -9 -20 -9 -41 1 -21 9 -31 9 -46
-1 -18 -11 -20 -10 -17 10 3 20 -2 23 -46 25 -27 2 -54 8 -60 14 -13 13 -29
13 -20 -1 3 -6 -6 -22 -22 -35 -34 -28 -12 -34 26 -7 20 13 22 14 13 2 -7 -9
-10 -19 -6 -23 4 -4 -1 -4 -12 -1 -15 5 -16 4 -6 -3 7 -5 21 -7 31 -5 13 4 23
-4 35 -26 9 -18 13 -36 10 -41 -11 -17 7 -11 21 7 17 24 26 12 29 -41 4 -48
-6 -59 -25 -28 -8 13 -9 9 -5 -18 5 -28 2 -40 -13 -53 -17 -16 -21 -16 -32 -2
-7 8 -17 12 -22 9 -12 -8 -49 26 -42 37 3 5 0 9 -6 9 -6 0 -8 5 -5 10 3 6 2
10 -4 10 -5 0 -12 -6 -14 -12 -4 -9 -6 -9 -6 -1 -1 6 11 21 25 32 19 15 22 21
11 21 -9 0 -25 10 -36 21 l-20 21 -11 -41 c-10 -40 -22 -47 -53 -35 -13 5 -13
8 4 25 22 22 25 49 7 67 -19 19 -1 25 30 9 31 -15 82 -12 82 5 0 10 -77 47
-100 48 -26 0 -62 30 -52 43 5 7 9 28 8 47 -1 31 -4 35 -28 35 -14 1 -33 7
-42 14 -14 12 -16 10 -16 -12 0 -33 -32 -88 -47 -82 -7 2 -19 -2 -26 -10 -8
-7 -31 -17 -51 -21 -21 -3 -43 -15 -49 -25 -7 -11 -17 -19 -24 -19 -6 0 -14
-15 -16 -32 -3 -25 -4 -21 -5 15 -2 46 0 49 28 60 50 19 35 38 -33 41 -37 2
-44 6 -59 37 -20 40 -14 87 8 68 10 -8 14 -8 14 -1 0 6 -20 23 -45 38 -25 14
-45 30 -45 35 0 6 -9 5 -20 -1 -15 -8 -19 -17 -15 -31 4 -12 2 -19 -7 -19 -9
0 -9 -3 -2 -8 6 -4 16 -17 23 -29 9 -18 9 -23 -1 -23 -8 -1 -6 -6 5 -14 10 -8
17 -17 15 -20 -2 -3 12 -21 30 -41 18 -19 31 -39 27 -45 -4 -6 4 -10 19 -10
34 0 41 -16 15 -31 l-23 -12 28 -14 c24 -13 27 -19 24 -61 -2 -35 -7 -48 -20
-50 -14 -3 -18 3 -18 25 -1 15 -10 39 -21 52 -19 23 -23 24 -52 12 -42 -17
-62 -19 -60 -5 1 5 3 32 6 60 2 27 9 59 16 72 7 13 10 30 7 38 -7 19 -35 18
-42 -1 -9 -23 -24 -7 -24 25 0 15 7 30 15 34 10 4 14 18 14 48 -2 53 -14 78
-37 78 -23 0 -67 -46 -82 -84 l-11 -29 -30 29 -30 29 22 17 c11 10 30 18 41
18 10 0 17 4 14 9 -4 5 0 12 6 14 7 3 4 6 -7 6 -11 1 -37 -13 -58 -30z m141
-68 c3 -8 -1 -12 -9 -9 -7 2 -15 10 -17 17 -3 8 1 12 9 9 7 -2 15 -10 17 -17z
m-143 -51 c3 -6 -1 -7 -9 -4 -18 7 -21 14 -7 14 6 0 13 -4 16 -10z m303 -66
c-4 -3 -12 5 -18 18 -12 22 -12 22 6 6 10 -10 15 -20 12 -24z m309 4 c-3 -8
-6 -5 -6 6 -1 11 2 17 5 13 3 -3 4 -12 1 -19z m-535 -28 c24 -22 18 -26 -13
-10 -10 6 -19 15 -19 20 0 15 9 12 32 -10z m601 -39 c2 -10 1 -25 -4 -32 -4
-8 -2 -17 7 -23 11 -9 7 -11 -18 -11 -28 0 -57 17 -58 35 0 11 52 60 59 55 5
-2 11 -13 14 -24z m-503 -1 c0 -11 -4 -20 -9 -20 -11 0 -22 26 -14 34 12 12
23 5 23 -14z m-40 -10 c0 -5 -2 -10 -4 -10 -3 0 -8 5 -11 10 -3 6 -1 10 4 10
6 0 11 -4 11 -10z m310 5 c0 -12 -24 -55 -32 -55 -11 0 -10 17 2 41 9 17 30
27 30 14z m157 -66 c7 -18 16 -28 23 -24 11 7 39 -21 40 -37 0 -9 -42 -10 -64
-2 -11 4 -14 13 -9 31 5 23 2 22 -30 -13 -37 -41 -57 -42 -37 -2 10 21 10 21
-3 6 -17 -22 -27 -23 -27 -3 0 7 8 19 18 24 9 6 13 11 8 11 -5 0 -1 9 9 20 27
30 58 26 72 -11z m-201 -51 c9 -18 25 -43 36 -55 12 -13 18 -29 14 -38 -5 -14
-9 -14 -37 1 -25 12 -29 18 -18 25 11 7 9 10 -8 15 -25 7 -32 47 -12 60 8 4 7
9 -2 15 -10 6 -10 9 -2 9 7 0 20 -15 29 -32z m355 -45 c-9 -16 -10 -14 -11 12
0 21 3 26 11 18 8 -8 8 -16 0 -30z m-190 -6 c-10 -9 -11 -8 -5 6 3 10 9 15 12
12 3 -3 0 -11 -7 -18z m-41 -33 c0 -8 -5 -12 -10 -9 -6 4 -8 11 -5 16 9 14 15
11 15 -7z m-335 -24 c3 -6 -1 -7 -9 -4 -18 7 -21 14 -7 14 6 0 13 -4 16 -10z
m645 -41 c-6 -10 -17 -19 -26 -19 -12 0 -12 4 2 25 19 29 39 24 24 -6z m-515
-26 c-6 -25 -8 -26 -17 -10 -7 13 -6 22 3 33 16 20 23 10 14 -23z m-56 -27
c21 -23 22 -24 2 -29 -14 -3 -18 -1 -14 9 3 8 0 14 -6 14 -6 0 -11 7 -11 15 0
20 3 19 29 -9z m211 14 c0 -15 -67 -80 -82 -80 -16 0 -38 19 -38 33 0 5 8 7
18 5 9 -2 22 0 27 4 6 5 21 17 35 28 28 22 40 25 40 10z m295 0 c-3 -5 -13
-10 -21 -10 -8 0 -12 5 -9 10 3 6 13 10 21 10 8 0 12 -4 9 -10z m-566 -27 c1
-7 1 -25 1 -40 -3 -92 -5 -103 -18 -103 -8 0 -12 -6 -8 -15 3 -8 3 -15 0 -15
-10 0 -44 86 -44 114 0 46 62 100 69 59z m431 -6 c0 -14 -19 -37 -31 -37 -3 0
-4 11 -1 25 4 25 32 36 32 12z m-26 -109 c-28 -48 -56 -76 -116 -115 -68 -44
-117 -58 -125 -36 -3 7 3 10 15 7 12 -4 35 10 69 40 28 25 63 50 78 56 15 6
25 13 21 17 -3 3 6 14 22 24 33 21 46 23 36 7z m-461 -44 c-6 -16 -33 -19 -33
-4 0 6 8 10 18 11 10 0 12 3 5 6 -7 2 -13 12 -13 21 1 15 2 15 15 -1 7 -11 11
-25 8 -33z m257 34 c0 -7 -9 -24 -21 -38 l-20 -25 18 38 c18 39 23 45 23 25z
m80 -29 c0 -14 -104 -92 -108 -81 -2 6 14 36 34 66 35 54 38 56 56 40 10 -10
18 -21 18 -25z m-169 -22 c7 -17 6 -30 -4 -50 l-14 -27 -16 42 c-13 33 -14 44
-4 50 19 12 27 10 38 -15z m-50 -33 c19 -46 19 -47 0 -65 -18 -17 -19 -17 -31
12 -7 16 -16 29 -20 29 -4 0 -10 10 -13 21 -4 17 -3 19 6 10 18 -18 25 -13 19
14 -8 42 17 28 39 -21z m131 -275 c-3 -21 -7 -27 -13 -18 -4 7 -3 21 2 31 14
25 16 23 11 -13z m-82 -205 c0 -14 -3 -14 -15 -4 -8 7 -15 14 -15 16 0 2 7 4
15 4 8 0 15 -7 15 -16z m200 -119 c0 -8 -4 -15 -10 -15 -5 0 -10 7 -10 15 0 8
5 15 10 15 6 0 10 -7 10 -15z m50 -69 c0 -8 7 -16 15 -20 8 -3 15 -12 15 -20
0 -9 6 -13 14 -10 8 3 17 0 21 -7 11 -17 14 -89 4 -89 -16 0 -24 5 -21 13 1 4
-11 7 -27 7 -16 0 -31 -6 -34 -12 -2 -7 -2 14 1 46 4 48 2 62 -13 72 -9 7 -14
17 -10 23 9 16 35 13 35 -3z m38 -171 c-3 -3 -9 2 -12 12 -6 14 -5 15 5 6 7
-7 10 -15 7 -18z m-472 -29 c21 -22 18 -56 -5 -56 -25 0 -30 9 -24 43 6 31 9
32 29 13z m195 -1 c1 -5 1 -13 0 -17 0 -4 5 -5 13 -2 8 3 17 1 20 -4 3 -5 -5
-12 -19 -14 -13 -3 -22 -2 -20 2 7 11 -23 33 -35 25 -5 -3 -10 0 -10 7 0 15
49 18 51 3z m109 -45 c0 -5 -2 -10 -4 -10 -3 0 -8 5 -11 10 -3 6 -1 10 4 10 6
0 11 -4 11 -10z m30 -4 c0 -3 -4 -8 -10 -11 -5 -3 -10 -1 -10 4 0 6 5 11 10
11 6 0 10 -2 10 -4z m74 -32 c3 -8 2 -12 -4 -9 -6 3 -10 10 -10 16 0 14 7 11
14 -7z m-61 -1 c-7 -2 -21 -2 -30 0 -10 3 -4 5 12 5 17 0 24 -2 18 -5z m-38
-33 c3 -6 -1 -7 -9 -4 -18 7 -21 14 -7 14 6 0 13 -4 16 -10z m120 -32 c6 -4 0
-8 -12 -8 -16 0 -21 4 -16 15 3 9 8 12 12 8 3 -4 11 -11 16 -15z m-228 -13 c0
-8 -4 -12 -9 -9 -5 3 -6 10 -3 15 9 13 12 11 12 -6z m133 5 c0 -5 -5 -10 -11
-10 -5 0 -7 5 -4 10 3 6 8 10 11 10 2 0 4 -4 4 -10z m40 0 c0 -5 -4 -10 -10
-10 -5 0 -10 5 -10 10 0 6 5 10 10 10 6 0 10 -4 10 -10z m225 -49 c-6 -5 -37
-12 -70 -15 l-60 -5 60 13 c77 18 81 18 70 7z m-31 -471 c-12 -5 -43 -11 -70
-14 l-49 -6 50 14 c28 8 59 14 70 14 19 1 19 0 -1 -8z"/>
<path d="M1986 2557 c3 -10 9 -15 12 -12 3 3 0 11 -7 18 -10 9 -11 8 -5 -6z"/>
<path d="M1880 2963 c1 -4 7 -19 15 -33 11 -20 14 -21 15 -7 0 10 -7 25 -15
33 -8 9 -15 12 -15 7z"/>
<path d="M1743 2915 c0 -8 4 -15 9 -15 4 0 8 4 8 9 0 6 -4 12 -8 15 -5 3 -9
-1 -9 -9z"/>
<path d="M2355 2839 c-9 -14 -2 -20 14 -10 8 6 9 11 3 15 -6 3 -14 1 -17 -5z"/>
<path d="M2236 2824 c-4 -9 -4 -19 -1 -22 3 -3 5 0 5 6 0 7 5 12 11 12 5 0 8
-4 4 -9 -10 -17 17 -24 33 -8 14 15 13 17 -12 27 -34 13 -33 13 -40 -6z"/>
<path d="M2560 2800 c-13 -8 -13 -10 2 -10 9 0 20 5 23 10 8 13 -5 13 -25 0z"/>
<path d="M1750 2710 c0 -19 3 -21 12 -12 9 9 9 15 0 24 -9 9 -12 7 -12 -12z"/>
<path d="M2607 2578 c-2 -7 -1 -34 2 -58 13 -86 34 -93 56 -18 18 63 18 58 0
58 -8 0 -15 -6 -16 -12 -1 -7 -4 -2 -8 11 -8 28 -26 38 -34 19z"/>
<path d="M2520 2552 c-25 -8 -29 -24 -15 -59 8 -19 10 -31 5 -28 -13 8 -13 2
4 -31 8 -15 12 -32 9 -37 -3 -6 -1 -7 5 -3 8 4 21 -13 38 -48 30 -64 54 -74
54 -22 0 26 -8 42 -34 67 -28 26 -33 37 -30 63 7 42 -16 104 -36 98z"/>
<path d="M1840 1609 c0 -5 5 -7 10 -4 6 3 10 8 10 11 0 2 -4 4 -10 4 -5 0 -10
-5 -10 -11z"/>
</g>
</svg>
