<svg width="48" height="48" viewBox="0 0 48 48" fill="none" xmlns="http://www.w3.org/2000/svg">
<rect width="48" height="48" rx="24" fill="#01370C"/>
<path d="M20.4079 12H27.5833C28.1435 12.0311 28.7038 12.0603 29.264 12.0942C30.2428 12.1516 31.2042 12.3201 32.1034 12.725C34.311 13.7179 35.4738 15.4862 35.8354 17.8313C35.8994 18.2456 35.9296 18.6651 35.9766 19.0817V28.7429C35.9625 28.8503 35.947 28.9576 35.9343 29.065C35.8721 29.5913 35.8453 30.1257 35.7394 30.6436C35.2629 32.9373 33.9673 34.5667 31.7625 35.425C30.7061 35.8364 29.5931 35.9485 28.4726 35.9598C25.9331 35.9857 23.3932 36.0097 20.8532 35.996C19.6056 35.9895 18.3519 35.9843 17.1245 35.6867C15.1373 35.2042 13.6613 34.0771 12.7838 32.2165C12.2438 31.0715 12.0776 29.8394 12.0653 28.5914C12.038 25.9949 12.0093 23.3999 12.03 20.8039C12.0332 19.7105 12.1119 18.6187 12.2654 17.5361C12.5121 15.8605 13.3214 14.4637 14.6957 13.4326C15.8727 12.5489 17.238 12.1977 18.6791 12.0956C19.2549 12.0551 19.8316 12.0315 20.4079 12ZM24.0283 33.892V33.8553C24.6615 33.8553 25.2952 33.8742 25.9275 33.8516C27.2848 33.8045 28.6524 33.8181 29.9966 33.6501C31.843 33.4189 33.0954 32.3596 33.5492 30.5216C33.7323 29.7792 33.7959 28.9929 33.8091 28.2246C33.8505 25.8104 33.8624 23.3955 33.8449 20.98C33.8447 20.0044 33.7861 19.0296 33.6693 18.061C33.424 16.1303 32.2201 14.8248 30.3177 14.4448C29.4966 14.281 28.6435 14.2316 27.8031 14.2179C25.7015 14.1826 23.5989 14.1892 21.4945 14.1963C20.292 14.2 19.0863 14.1845 17.8947 14.394C16.0756 14.7146 14.8275 15.8695 14.4556 17.6835C14.295 18.4655 14.2423 19.2785 14.2254 20.0793C14.1844 22.0011 14.1689 23.9248 14.1905 25.8471C14.2056 27.2049 14.2414 28.5673 14.3713 29.9181C14.4984 31.2363 15.1208 32.3267 16.278 33.0451C17.0605 33.5305 17.9399 33.7249 18.8462 33.7574C20.5736 33.8191 22.3005 33.8478 24.0283 33.892Z" fill="white"/>
<path d="M17.8467 24.0053C17.8519 20.5967 20.6291 17.8285 24.0283 17.8426C27.4449 17.8567 30.2042 20.6288 30.183 24.0256C30.1618 27.4355 27.4105 30.1807 24.0156 30.1775C20.6108 30.1727 17.8415 27.4026 17.8467 24.0053ZM20.0199 24.0053C20.0191 24.796 20.2528 25.5692 20.6915 26.227C21.1302 26.8848 21.7542 27.3977 22.4845 27.7008C23.2148 28.0039 24.0185 28.0836 24.7941 27.9298C25.5697 27.7759 26.2822 27.3955 26.8415 26.8366C27.4008 26.2777 27.7818 25.5654 27.9362 24.7899C28.0906 24.0145 28.0115 23.2106 27.7089 22.4801C27.4063 21.7496 26.8938 21.1253 26.2363 20.6861C25.5788 20.2469 24.8058 20.0127 24.0151 20.013C23.4903 20.0116 22.9704 20.114 22.4853 20.3141C22.0002 20.5143 21.5594 20.8083 21.1882 21.1792C20.817 21.5502 20.5227 21.9908 20.3222 22.4757C20.1217 22.9607 20.019 23.4805 20.0199 24.0053Z" fill="white"/>
<path d="M30.458 16.1623C30.8348 16.1758 31.1912 16.337 31.4502 16.611C31.7093 16.8851 31.8502 17.25 31.8425 17.627C31.8348 18.004 31.6792 18.3629 31.4093 18.6261C31.1393 18.8894 30.7767 19.036 30.3996 19.0342C30.2091 19.0333 30.0206 18.9945 29.8453 18.92C29.6699 18.8456 29.5111 18.737 29.3781 18.6007C29.245 18.4643 29.1405 18.3028 29.0705 18.1256C29.0005 17.9484 28.9664 17.7591 28.9703 17.5686C28.9742 17.3781 29.0159 17.1903 29.093 17.0161C29.1702 16.8419 29.2812 16.6848 29.4197 16.5539C29.5581 16.4231 29.7212 16.321 29.8995 16.2538C30.0777 16.1866 30.2676 16.1555 30.458 16.1623Z" fill="white"/>
</svg>
