<svg width="36" height="33" viewBox="0 0 36 33" fill="none" xmlns="http://www.w3.org/2000/svg">
<rect width="36" height="33" fill="#F5F5F5"/>
<g id="Home Page" clip-path="url(#clip0_0_1)">
<rect width="1440" height="5686" transform="translate(-894 -5641)" fill="#F0F5F0"/>
<g id="Footer ">
<rect width="1440" height="306" transform="translate(-894 -261)" fill="#436E35"/>
<g id="Mini Footer">
<rect width="1440" height="57" transform="translate(-894 -12)" fill="#01370C"/>
<g id="Payment Gateways Logos">
<g id="Frame 60">
<g id="Group">
<path id="Vector" d="M22.9017 7.85229H13.1924V25.1487H22.9017V7.85229Z" fill="#FF5F00"/>
<path id="Vector_2" d="M13.8087 16.4995C13.8071 14.8337 14.1879 13.1895 14.9222 11.6911C15.6564 10.1928 16.7249 8.87975 18.0468 7.85132C16.4099 6.57582 14.4439 5.7826 12.3738 5.56234C10.3036 5.34207 8.21262 5.70363 6.33992 6.60571C4.46722 7.50779 2.88831 8.91398 1.78368 10.6636C0.679048 12.4131 0.0932617 14.4355 0.0932617 16.4995C0.0932617 18.5635 0.679048 20.5859 1.78368 22.3355C2.88831 24.085 4.46722 25.4912 6.33992 26.3933C8.21262 27.2954 10.3036 27.657 12.3738 27.4367C14.4439 27.2164 16.4099 26.4232 18.0468 25.1477C16.7249 24.1193 15.6564 22.8062 14.9222 21.3079C14.1879 19.8096 13.8071 18.1653 13.8087 16.4995V16.4995Z" fill="#EB001B"/>
<path id="Vector_3" d="M35.9999 16.4995C35.9999 18.5635 35.4142 20.5858 34.3096 22.3354C33.2051 24.085 31.6262 25.4912 29.7536 26.3933C27.8809 27.2954 25.79 27.657 23.7198 27.4367C21.6496 27.2164 19.6838 26.4232 18.0469 25.1477C19.3676 24.1182 20.4352 22.8049 21.1694 21.3069C21.9035 19.8088 22.285 18.165 22.285 16.4995C22.285 14.834 21.9035 13.1902 21.1694 11.6922C20.4352 10.1941 19.3676 8.88079 18.0469 7.85131C19.6838 6.57581 21.6496 5.7826 23.7198 5.56233C25.79 5.34207 27.8809 5.70365 29.7536 6.60573C31.6262 7.50782 33.2051 8.91402 34.3096 10.6636C35.4142 12.4132 35.9999 14.4355 35.9999 16.4995V16.4995Z" fill="#F79E1B"/>
<path id="Vector_4" d="M34.9415 23.3183V22.9642H35.0856V22.8921H34.7188V22.9642H34.8628V23.3183H34.9415ZM35.6537 23.3183V22.8914H35.5413L35.4119 23.185L35.2826 22.8914H35.1701V23.3183H35.2495V22.9963L35.3707 23.2739H35.4531L35.5744 22.9956V23.3183H35.6537Z" fill="#F79E1B"/>
</g>
</g>
</g>
</g>
</g>
</g>
<defs>
<clipPath id="clip0_0_1">
<rect width="1440" height="5686" fill="white" transform="translate(-894 -5641)"/>
</clipPath>
</defs>
</svg>
